; Drill file
; Format: 3.3 (000.000)
M48
METRIC
T01C1
%
G05
G90
T01
X012700Y003500
X012700Y006000
X012700Y008500
X015800Y008500
X015800Y006000
X015800Y003500
X021500Y000530
X027800Y000530
X024800Y006000
X027800Y011500
X021500Y011500
X058600Y010800
X059800Y010800
X066200Y008500
X066200Y006000
X066200Y003500
X059800Y001200
X058600Y001200
X093000Y001200
X094200Y001200
X100600Y003500
X100600Y006000
X100600Y008500
X094200Y010800
X093000Y010800
X127400Y010800
X128600Y010800
X135000Y008500
X135000Y006000
X135000Y003500
X128600Y001200
X127400Y001200
X154700Y004800
X154700Y007200
M30
